<svg id="Layer_1" enable-background="new 0 0 512 512" height="512" viewBox="0 0 512 512" width="512" xmlns="http://www.w3.org/2000/svg"><path d="m451 400.072v-53.072c0-24.813-20.187-45-45-45s-45 20.187-45 45v45h-60c0-10.417 0-16.378 0-25.135 0-28.033 12.986-54.931 36.566-75.739 24.608-21.715 48.633-54.449 64.267-87.564 13.347-28.272 26.729-69.67 14.689-106.333-7.831-23.847-29.302-53.052-86.518-61.632-4.336-20.313-22.415-35.597-44.004-35.597h-90c-21.59 0-39.67 15.286-44.005 35.601-56.978 8.575-78.406 37.801-86.244 61.669-12.03 36.634 1.187 77.907 14.393 106.08 15.54 33.152 39.574 65.966 64.291 87.776 23.579 20.809 36.565 47.707 36.565 75.739v25.135h-90c-33.084 0-60 26.916-60 60s26.916 60 60 60h330c33.084 0 60-26.916 60-60 0-22.159-12.084-41.537-30-51.928zm-60-53.072c0-8.271 6.729-15 15-15s15 6.729 15 15v45h-30zm-178.491 75c-.988-4.848-1.509-9.864-1.509-15v-15h60v30zm28.491-272c10.515 0 20.612-1.819 30-5.148v37.148h-60v-37.148c9.388 3.329 19.485 5.148 30 5.148zm-30 182h60v30h-60zm0-120h60v30h-60zm0 60h60v30h-60zm119.787-205.871c31.035 5.675 50.265 19.241 57.232 40.46 6.989 21.282 2.26 51.172-13.315 84.166-13.979 29.612-35.283 58.725-56.987 77.877-6.148 5.425-11.722 11.201-16.717 17.263v-158.875c16.976-15.213 28.156-36.763 29.787-60.891zm-149.787-21.129c0-8.271 6.729-15 15-15h90c8.271 0 15 6.729 15 15v15c0 33.084-26.916 60-60 60s-60-26.916-60-60zm-16.716 223.632c-21.792-19.23-43.092-48.395-56.977-78.015-15.408-32.872-20.044-62.699-13.054-83.987 6.975-21.24 26.114-34.817 56.96-40.493 1.633 24.125 12.813 45.671 29.786 60.883v158.875c-4.994-6.062-10.567-11.837-16.715-17.263zm-73.284 213.368c-16.542 0-30-13.458-30-30s13.458-30 30-30h91.076c3.354 23.348 14.417 44.236 30.52 60zm135.041-30h46.468c2.258 11.079 6.967 21.274 13.532 30h-.041c-24.484 0-46.262-11.796-59.959-30zm194.959 30c-7.424 0-66.539 0-75 0-24.813 0-45-20.187-45-45v-15h120c16.542 0 30 13.458 30 30s-13.458 30-30 30z"/></svg>