<svg id="Layer_35" enable-background="new 0 0 64 64" height="512" viewBox="0 0 64 64" width="512" xmlns="http://www.w3.org/2000/svg"><path d="m55.91 38c3.65 2.3 6.09 6.36 6.09 11 0 7.18-5.82 13-13 13-4.28 0-8.07-2.06-10.43-5.25-1.07-1.44-1.85-3.1-2.26-4.91-.2-.91-.31-1.86-.31-2.84 0-1.27.18-2.49.53-3.65.89-3.08 2.91-5.68 5.56-7.35z" fill="#838f9b"/><path d="m56 34v4h-.09-13.82-2.41c1.53-1.17 2.32-2.54 2.32-4h7z" fill="#aab2bd"/><path d="m49 56h-3c-.55 0-1-.45-1-1v-2l-1.34-1.34c-1.06-1.06-1.66-2.5-1.66-4 0-3.13 2.53-5.66 5.66-5.66h2.68c1.56 0 2.98.63 4 1.66 1.03 1.02 1.66 2.44 1.66 4 0 1.5-.6 2.94-1.66 4l-1.34 1.34v2c0 .55-.45 1-1 1z" fill="#e6e9ed"/><path d="m39.68 38h2.41c-2.65 1.67-4.67 4.27-5.56 7.35-2.71 1.6-7.63 2.65-14.53 2.65-10.99 0-16.94-2.66-17-5.95 0-.02 0-.03 0-.05v-3.52c3.26 2.13 9.08 3.52 17 3.52 8.5 0 14.59-1.61 17.68-4z" fill="#ffc729"/><path d="m5 38.48c-1.97-1.27-3-2.82-3-4.48v-6c0 4.42 7.3 8 20 8s20-3.58 20-8v6c0 1.46-.79 2.83-2.32 4-3.09 2.39-9.18 4-17.68 4-7.92 0-13.74-1.39-17-3.52z" fill="#ffeaa7"/><path d="m39 20.48c-3.26 2.13-9.08 3.52-17 3.52s-13.74-1.39-17-3.52c-1.97-1.27-3-2.82-3-4.48v-6c0 4.42 7.3 8 20 8s20-3.58 20-8v6c0 1.66-1.03 3.21-3 4.48z" fill="#ffeaa7"/><path d="m39 24.04c1.91 1.17 3 2.53 3 3.96 0 4.42-7.3 8-20 8s-20-3.58-20-8c0-1.43 1.09-2.79 3-3.96.05 3.29 5.99 5.96 17 5.96s16.95-2.67 17-5.96z" fill="#fcd770"/><path d="m39 24.04c-.05 3.29-5.99 5.96-17 5.96s-16.95-2.67-17-5.96c0-.01 0-.03 0-.04v-3.52c3.26 2.13 9.08 3.52 17 3.52s13.74-1.39 17-3.52v3.52z" fill="#ffc729"/><ellipse cx="22" cy="10" fill="#fcd770" rx="20" ry="8"/><path d="m36.31 51.84c.41 1.81 1.19 3.47 2.26 4.91-3.33 1.97-8.99 3.25-16.57 3.25-12.7 0-20-3.58-20-8v-6c0 4.42 7.3 8 20 8 6.08 0 10.92-.82 14.31-2.16z" fill="#ffeaa7"/><path d="m36.53 45.35c-.35 1.16-.53 2.38-.53 3.65 0 .98.11 1.93.31 2.84-3.39 1.34-8.23 2.16-14.31 2.16-12.7 0-20-3.58-20-8 0-1.44 1.09-2.79 3-3.95.06 3.29 6.01 5.95 17 5.95 6.9 0 11.82-1.05 14.53-2.65z" fill="#fcd770"/><path d="m29.654 14.464-.307-1.977c-.606.095-1.25.178-1.934.25l.207 1.988c.72-.074 1.397-.163 2.034-.261z"/><path d="m33.691 13.568-.578-1.914c-.577.174-1.204.335-1.861.479l.428 1.953c.708-.153 1.384-.328 2.011-.518z"/><path d="m37.612 11.825-1.131-1.65c-.413.284-.963.575-1.59.843l.785 1.84c.758-.324 1.409-.671 1.936-1.033z"/><path d="m22 7v-2c-.704 0-1.382.011-2.033.033l.066 1.998c.63-.02 1.286-.031 1.967-.031z"/><path d="m18.071 7.133-.143-1.994c-7.089.505-10.394 2.265-11.486 2.999l1.115 1.66c.96-.645 3.904-2.194 10.514-2.665z"/><path d="m50.343 41h-2.686c-3.671 0-6.657 2.986-6.657 6.657 0 1.778.692 3.449 1.95 4.707l1.05 1.05v1.586c0 1.103.897 2 2 2h6c1.103 0 2-.897 2-2v-1.586l1.05-1.05c1.258-1.258 1.95-2.929 1.95-4.707 0-3.671-2.986-6.657-6.657-6.657zm3.293 9.95-1.636 1.636v2.414h-2v-2h-2v2h-2v-2.414l-1.636-1.636c-.88-.88-1.364-2.049-1.364-3.293 0-2.568 2.089-4.657 4.657-4.657h2.686c2.568 0 4.657 2.089 4.657 4.657 0 1.244-.484 2.413-1.364 3.293z"/><path d="m51 46h2v2h-2z"/><path d="m45 46h2v2h-2z"/><path d="m57 37.532v-4.532h-7v-10c0-.552.448-1 1-1s1 .448 1 1v3c0 1.654 1.346 3 3 3s3-1.346 3-3v-12h-2v12c0 .552-.448 1-1 1s-1-.448-1-1v-3c0-1.654-1.346-3-3-3s-3 1.346-3 3v10h-5v-5c0-1.149-.558-2.829-3-4.482v-2.479c1.932-1.386 3-3.086 3-5.038v-6c0-5.468-8.243-9-21-9s-21 3.531-21 8.999v6c0 1.952 1.068 3.652 3 5.038v2.479c-2.442 1.654-3 3.334-3 4.483v6c0 1.952 1.068 3.652 3 5.038v2.479c-2.443 1.655-3 3.334-3 4.483v6c0 5.468 8.243 9 21 9 6.85 0 12.571-1.063 16.305-2.985 2.57 3.044 6.408 4.985 10.695 4.985 7.72 0 14-6.28 14-14 0-4.607-2.233-8.842-6-11.468zm-2-.532h-12.95c.421-.628.717-1.294.854-2h12.096zm-33-34c12.474 0 19 3.521 19 7s-6.526 7-19 7-19-3.521-19-7 6.526-7 19-7zm-19 11.215c3.168 2.995 9.935 4.785 19 4.785s15.832-1.79 19-4.785v1.785c0 3.479-6.526 7-19 7s-19-3.521-19-7zm19 10.785c6.819 0 12.33-1.017 16-2.792v1.792c0 2.484-5.496 5-16 5s-16-2.516-16-5v-1.792c3.67 1.775 9.181 2.792 16 2.792zm-17.596.696c1.604 3.311 8.034 5.304 17.596 5.304s15.992-1.993 17.596-5.304c.768.639 1.404 1.428 1.404 2.304 0 3.479-6.526 7-19 7s-19-3.521-19-7c0-.876.636-1.665 1.404-2.304zm-1.404 6.519c3.168 2.995 9.935 4.785 19 4.785s15.832-1.79 19-4.785v1.785c0 3.479-6.526 7-19 7s-19-3.521-19-7zm19 10.785c6.931 0 12.514-1.049 16.182-2.879-1.112 1.346-1.958 2.885-2.497 4.543-2.808 1.504-7.628 2.336-13.685 2.336-10.504 0-16-2.516-16-5v-1.792c3.67 1.775 9.181 2.792 16 2.792zm-17.596.696c1.604 3.311 8.034 5.304 17.596 5.304 5.437 0 9.978-.672 13.13-1.896-.084.623-.13 1.256-.13 1.896 0 .743.075 1.467.187 2.179-3.399 1.188-7.925 1.821-13.187 1.821-12.474 0-19-3.521-19-7 0-.876.637-1.665 1.404-2.304zm17.596 15.304c-12.474 0-19-3.521-19-7v-1.785c3.168 2.995 9.935 4.785 19 4.785 5.369 0 10.04-.643 13.627-1.855.357 1.15.871 2.229 1.496 3.232-3.451 1.691-8.745 2.623-15.123 2.623zm27 2c-6.617 0-12-5.383-12-12 0-4.047 2.009-7.764 5.389-10h13.223c3.379 2.236 5.388 5.953 5.388 10 0 6.617-5.383 12-12 12z"/><path d="m59.414 13 2.535-2.535-1.414-1.414-2.535 2.535v-3.586h-2v3.586l-2.535-2.535-1.414 1.414 2.535 2.535h-3.586v2h4v-1.828l1.172-1.172h1.656l1.172 1.172v1.828h4v-2z"/></svg>